<svg width="236" height="73" viewBox="0 0 236 73" fill="none" xmlns="http://www.w3.org/2000/svg">
<path d="M24.7841 0.240232H51.5441C52.8507 0.240232 54.0507 0.573566 55.1441 1.24023C56.2641 1.88023 57.1441 2.76023 57.7841 3.88023C58.4507 4.97357 58.7841 6.17357 58.7841 7.48023C58.7841 9.21357 58.2507 10.7869 57.1841 12.2002C56.1174 13.6136 54.7707 14.5202 53.1441 14.9202C54.5841 15.3202 55.7574 16.0802 56.6641 17.2002C57.5974 18.3202 58.0641 19.5869 58.0641 21.0002V28.2402H44.6641V19.5602C44.6641 18.7069 44.5041 18.0402 44.1841 17.5602C43.8107 17.0002 43.3841 16.5869 42.9041 16.3202C42.3707 16.0269 41.7707 15.8136 41.1041 15.6802C40.4107 15.5469 39.7574 15.4669 39.1441 15.4402L38.0641 15.4002V28.2402H24.7841V0.240232ZM39.4641 13.0802C40.4241 13.0802 41.3041 12.8536 42.1041 12.4002C42.9307 11.9202 43.5707 11.2802 44.0241 10.4802C44.5041 9.65357 44.7441 8.77357 44.7441 7.84023C44.7441 6.88023 44.5041 6.00023 44.0241 5.20023C43.5707 4.37357 42.9307 3.72023 42.1041 3.24023C41.3041 2.76023 40.4241 2.52023 39.4641 2.52023H38.0641V13.1202L39.4641 13.0802ZM78.9338 28.4402C75.3604 28.4402 72.1338 27.8936 69.2538 26.8002C66.3738 25.7069 64.0938 24.0936 62.4138 21.9602C60.7604 19.8002 59.9338 17.2136 59.9338 14.2002C59.9338 11.2136 60.7738 8.65357 62.4538 6.52023C64.1338 4.3869 66.4004 2.77357 69.2538 1.68023C72.1338 0.560233 75.3604 0.000233173 78.9338 0.000233173C82.4804 0.000233173 85.6804 0.560233 88.5338 1.68023C91.4138 2.77357 93.6804 4.3869 95.3338 6.52023C97.0138 8.65357 97.8538 11.2136 97.8538 14.2002C97.8538 17.2136 97.0138 19.8002 95.3338 21.9602C93.6804 24.0936 91.4138 25.7069 88.5338 26.8002C85.6804 27.8936 82.4804 28.4402 78.9338 28.4402ZM78.9338 26.0802C80.0538 26.0802 80.8804 25.5736 81.4138 24.5602C81.8671 23.7869 82.1738 22.4136 82.3338 20.4402C82.4138 19.4002 82.4538 17.3202 82.4538 14.2002C82.4538 11.0536 82.3871 8.8269 82.2538 7.52023C82.1738 5.92023 81.8804 4.7069 81.3738 3.88023C80.8404 2.8669 80.0271 2.36023 78.9338 2.36023C77.8138 2.36023 76.9738 2.8669 76.4138 3.88023C75.9604 4.68023 75.6671 5.89357 75.5338 7.52023C75.4271 8.9069 75.3738 11.1336 75.3738 14.2002C75.3738 17.6669 75.4138 19.7469 75.4938 20.4402C75.6004 22.2802 75.8938 23.6536 76.3738 24.5602C76.9338 25.5736 77.7871 26.0802 78.9338 26.0802ZM119.913 25.6402C121.913 25.6402 123.5 24.8269 124.673 23.2002C125.847 21.5736 126.607 19.6002 126.953 17.2802H129.433C129.06 20.1602 128.113 22.6136 126.593 24.6402C125.74 25.7602 124.767 26.6002 123.673 27.1602C122.607 27.6936 121.42 28.0402 120.113 28.2002C118.833 28.3602 117.153 28.4402 115.073 28.4402C112.14 28.4402 109.753 28.1602 107.913 27.6002C106.1 27.0136 104.54 26.0669 103.233 24.7602C100.673 22.2002 99.3934 18.6802 99.3934 14.2002C99.3934 9.48023 100.54 5.97357 102.833 3.68023C104.327 2.1869 105.993 1.20023 107.833 0.720233C109.673 0.240233 112.087 0.000233173 115.073 0.000233173C117.82 0.000233173 120.047 0.200233 121.753 0.600233C123.487 0.973566 124.9 1.7869 125.993 3.04023C126.9 4.08023 127.607 5.33357 128.113 6.80023C128.62 8.2669 128.913 9.72023 128.993 11.1602H126.713C126.607 9.96023 126.313 8.73357 125.833 7.48023C125.38 6.20023 124.66 5.1069 123.673 4.20023C122.687 3.2669 121.433 2.80023 119.913 2.80023C118.473 2.80023 117.313 3.4269 116.433 4.68023C115.66 5.6669 115.073 7.12023 114.673 9.04023C114.38 10.5069 114.233 12.2269 114.233 14.2002C114.233 17.3202 114.607 19.8402 115.353 21.7602C116.313 24.3469 117.833 25.6402 119.913 25.6402ZM131.386 0.240232H145.426V28.2402H131.386V0.240232ZM145.426 14.2002L151.986 0.240232H165.946L158.946 14.2002L167.826 28.2402H153.706L145.426 14.2002ZM169.354 0.240232H182.394V28.2402H169.354V0.240232ZM184.667 0.240232H196.427L208.107 14.2402V0.240232H210.507V28.2402H201.107L187.107 9.60023V28.2402H184.667V0.240232ZM13.4389 72.4402C10.2389 72.4402 7.67891 72.2002 5.75891 71.7202C3.83891 71.2136 2.39891 70.3469 1.43891 69.1202C0.478906 67.8669 -0.00109372 66.1069 -0.00109372 63.8402V61.6402H2.35891V63.8402C2.35891 67.4669 3.90557 69.2802 6.99891 69.2802C8.38557 69.2802 9.49224 68.8536 10.3189 68.0002C11.1722 67.1202 11.5989 65.7336 11.5989 63.8402V44.2402H26.8789V63.8402C26.8789 66.7469 25.8389 68.9069 23.7589 70.3202C21.7056 71.7336 18.2656 72.4402 13.4389 72.4402ZM47.8205 72.4402C44.2471 72.4402 41.0205 71.8936 38.1405 70.8002C35.2605 69.7069 32.9805 68.0936 31.3005 65.9602C29.6471 63.8002 28.8205 61.2136 28.8205 58.2002C28.8205 55.2136 29.6605 52.6536 31.3405 50.5202C33.0205 48.3869 35.2871 46.7736 38.1405 45.6802C41.0205 44.5602 44.2471 44.0002 47.8205 44.0002C51.3671 44.0002 54.5671 44.5602 57.4205 45.6802C60.3005 46.7736 62.5671 48.3869 64.2205 50.5202C65.9005 52.6536 66.7405 55.2136 66.7405 58.2002C66.7405 61.2136 65.9005 63.8002 64.2205 65.9602C62.5671 68.0936 60.3005 69.7069 57.4205 70.8002C54.5671 71.8936 51.3671 72.4402 47.8205 72.4402ZM47.8205 70.0802C48.9405 70.0802 49.7671 69.5736 50.3005 68.5602C50.7538 67.7869 51.0605 66.4136 51.2205 64.4402C51.3005 63.4002 51.3405 61.3202 51.3405 58.2002C51.3405 55.0536 51.2738 52.8269 51.1405 51.5202C51.0605 49.9202 50.7671 48.7069 50.2605 47.8802C49.7271 46.8669 48.9138 46.3602 47.8205 46.3602C46.7005 46.3602 45.8605 46.8669 45.3005 47.8802C44.8471 48.6802 44.5538 49.8936 44.4205 51.5202C44.3138 52.9069 44.2605 55.1336 44.2605 58.2002C44.2605 61.6669 44.3005 63.7469 44.3805 64.4402C44.4871 66.2802 44.7805 67.6536 45.2605 68.5602C45.8205 69.5736 46.6738 70.0802 47.8205 70.0802ZM68.7098 44.2402H82.3098V56.7602H91.1498V44.2402H104.75V72.2402H91.1498V59.4402H82.3098V72.2402H68.7098V44.2402ZM106.991 44.2402H118.751L130.431 58.2402V44.2402H132.831V72.2402H123.431L109.431 53.6002V72.2402H106.991V44.2402ZM135.077 44.2402H146.837L158.517 58.2402V44.2402H160.917V72.2402H151.517L137.517 53.6002V72.2402H135.077V44.2402ZM171.29 59.4002L162.61 44.2402H178.29L184.05 55.6802L189.65 44.2402H192.73L185.29 59.4002V72.2402H171.29V59.4002ZM194.725 44.2402H202.645V56.4402H196.925L194.725 44.2402ZM226.041 54.2802C229.214 55.1336 231.587 56.2669 233.161 57.6802C234.734 59.0669 235.521 60.8802 235.521 63.1202C235.521 64.9069 234.961 66.5069 233.841 67.9202C232.721 69.3336 231.067 70.4402 228.881 71.2402C226.721 72.0402 224.094 72.4402 221.001 72.4402C217.347 72.4402 214.121 71.9736 211.321 71.0402C208.547 70.0802 206.374 68.9202 204.801 67.5602L206.121 65.7602C207.507 66.8536 209.254 67.7869 211.361 68.5602C213.467 69.3336 215.734 69.7202 218.161 69.7202C219.734 69.7202 220.921 69.4936 221.721 69.0402C222.547 68.5869 222.961 67.9469 222.961 67.1202C222.961 65.6802 221.534 64.5602 218.681 63.7602L213.481 62.2402C210.654 61.3869 208.467 60.2002 206.921 58.6802C205.401 57.1602 204.641 55.3602 204.641 53.2802C204.641 51.5469 205.187 49.9736 206.281 48.5602C207.374 47.1469 208.961 46.0402 211.041 45.2402C213.147 44.4136 215.667 44.0002 218.601 44.0002C221.401 44.0002 223.974 44.3202 226.321 44.9602C228.694 45.6002 230.627 46.3736 232.121 47.2802L230.801 49.1202C229.547 48.4002 228.041 47.7869 226.281 47.2802C224.547 46.7736 222.721 46.5202 220.801 46.5202C219.121 46.5202 217.827 46.7869 216.921 47.3202C216.041 47.8269 215.601 48.5336 215.601 49.4402C215.601 50.1336 215.934 50.7469 216.601 51.2802C217.267 51.7869 218.534 52.2936 220.401 52.8002L226.041 54.2802Z" fill="black"/>
</svg>
